<?xml version="1.0" encoding="utf-8"?>
<!-- Generator: Adobe Illustrator 23.0.2, SVG Export Plug-In . SVG Version: 6.00 Build 0)  -->
<svg version="1.1" id="Слой_1" xmlns="http://www.w3.org/2000/svg" xmlns:xlink="http://www.w3.org/1999/xlink" x="0px" y="0px"
	 viewBox="0 0 296.11 136.78" style="enable-background:new 0 0 296.11 136.78;" xml:space="preserve">
<style type="text/css">
	.st0{fill:none;stroke:#454751;stroke-width:6;stroke-miterlimit:10;}
	.st1{fill:none;stroke:#454751;stroke-width:3;stroke-miterlimit:10;}
</style>
<g>
	<circle class="st0" cx="59.72" cy="77.96" r="55.65"/>
	<circle class="st0" cx="236.72" cy="77.96" r="55.65"/>
	<path class="st0" d="M114.56,86.83c0,0,6.92-5.62,10.62-15.28c2.23-5.81,0.93-12.4-3.23-17.03c-7.27-8.09-20.14-26.62,12.44-47.07
		c3.38-2.12,9.4-3.88,13.39-3.88h0c4.74,0,9.38,1.36,13.39,3.88c32.59,20.45,19.72,38.98,12.44,47.07
		c-4.16,4.62-5.46,11.22-3.23,17.03c3.7,9.66,10.62,15.28,10.62,15.28"/>
	<circle class="st1" cx="8.78" cy="116.39" r="6.67"/>
	<path class="st1" d="M19.22,78.44c0-23.2,18.8-42,42-42"/>
	<path class="st1" d="M196.22,78.44c0-23.2,18.8-42,42-42"/>
</g>
</svg>
