<?xml version="1.0" encoding="utf-8"?>
<!-- Generator: Adobe Illustrator 23.0.2, SVG Export Plug-In . SVG Version: 6.00 Build 0)  -->
<svg version="1.1" id="Слой_1" xmlns="http://www.w3.org/2000/svg" xmlns:xlink="http://www.w3.org/1999/xlink" x="0px" y="0px"
	 viewBox="0 0 330.8 180.1" style="enable-background:new 0 0 330.8 180.1;" xml:space="preserve">
<style type="text/css">
	.st0{fill:none;stroke:#454751;stroke-width:4;stroke-miterlimit:10;}
	.st1{fill:none;stroke:#454751;stroke-width:2;stroke-miterlimit:10;}
	.st2{fill:none;stroke:#454751;stroke-width:3;stroke-miterlimit:10;}
	.st3{fill:#454751;}
	.st4{fill:none;}
</style>
<g>
	<path class="st0" d="M86.5,131.3c14.8-4.6,29.5,0.6,33,11.7c3.5,11.1-12.2,6.5-26.9,11.1c-14.8,4.6-31.1,29.2-34.6,18.1
		C54.6,161.2,71.8,135.9,86.5,131.3z"/>
	<path class="st0" d="M170.7,3c32.3-1.3,56.6,24.9,55.6,55.7c-1,35-24.3,52.7-54.4,50c-30.6-2.7-56.9-19.3-56.9-50
		S136.3,4.4,170.7,3z"/>
	<path class="st0" d="M85.6,48.3c2,37,29.3-21.2,22.1-13.1c-4.2,4.6-5.5,11.2-3.2,17c3.7,9.7,10.6,15.3,10.6,15.3"/>
	<path class="st0" d="M120.1,146.3c0,0,2.7-3.1,3.4-7.1c0.4-2.4,2.6-5.3,0.1-6.3c-4.6-2-6.8-12.9,12.5-4.5"/>
	<ellipse transform="matrix(0.9543 -0.299 0.299 0.9543 -49.4341 27.9121)" class="st1" cx="66.5" cy="175.5" rx="3.4" ry="2.5"/>
	<path class="st2" d="M114,125.5"/>
	<path class="st2" d="M77.2,150.3"/>
	<g>
		<path class="st3" d="M309.6,83.6l19.7,2.9l-0.6,4.1L309,87.7l-4.4,30.1l-4.2-0.6l4.5-30.1l-55.2-8.1l0.3-2.3l65.8-70.1l5.1,0.8
			L309.6,83.6z M256.8,75.8l48.6,7.2l10.5-71.3l-8.1,9.5L256.8,75.8z"/>
	</g>
	<rect x="-5" y="-29.3" class="st4" width="88.5" height="177"/>
	<polygon class="st3" points="192.6,80.8 190.4,66.2 181.9,60.4 178.4,51.5 184.2,60.4 192.6,65.3 194.8,76.8 	"/>
	<polygon class="st3" points="210.5,81.8 203.8,77.7 194.8,76.8 192.2,82.2 202.5,79.7 	"/>
	<polygon class="st3" points="195,80.7 194.3,86 197.5,90.5 197.2,94.5 198.2,89.5 196.3,86.2 197.3,79.5 	"/>
	<polygon class="st3" points="193.5,70.5 197.8,65 199.2,59.2 198.7,65.3 193.8,74.3 	"/>
	<polygon class="st3" points="191.8,74.7 180.7,76 175.5,82.8 181.3,76.7 192.5,78.5 	"/>
	<g>
		<path class="st3" d="M62.5,79.6h19.9v4.1H62.5v30.5h-4.3V83.7H2.5v-2.3L57.4,2.5h5.1V79.6z M9.1,79.6h49.1V7.5L51.6,18L9.1,79.6z"
			/>
	</g>
</g>
</svg>
